# xmcd
#
# Track frame offsets: 
#        150
#        10580
#        29505
#        46380
#        70055
#        89548
#        100705
#        121205
#        140473
#        156868
#
# Disc length: 2423 seconds
#
# Revision: 2
# Processed by: cddbd v1.5.2PL0 Copyright (c) Steve Scherf et al.
# Submitted via: ExactAudioCopy v0.95b4
#
DISCID=7a09750a
DTITLE=Loudness - Disillusion (English Version)
DYEAR=1984
DGENRE=Heavy Metal
TTITLE0=Anthem (Loudness Overture) (Instrumental)
TTITLE1=Crazy Doctor
TTITLE2=Esper
TTITLE3=Butterfly
TTITLE4=Revelation
TTITLE5=Exploder (Instrumental)
TTITLE6=Dream Fantasy
TTITLE7=Milky Way
TTITLE8=Satisfaction Garanteed
TTITLE9=Ares' Lament
EXTD=YEAR: 1984
EXTT0=
EXTT1=
EXTT2=
EXTT3=
EXTT4=
EXTT5=
EXTT6=
EXTT7=
EXTT8=
EXTT9=
PLAYORDER=
